<mxfile host="Electron" agent="Mozilla/5.0 (Macintosh; Intel Mac OS X 10_15_7) AppleWebKit/537.36 (KHTML, like Gecko) draw.io/24.7.17 Chrome/128.0.6613.36 Electron/32.0.1 Safari/537.36" version="24.7.17" pages="2">
  <diagram id="MUEAqeF0EI30ocJ9Ftwc" name="main">
    <mxGraphModel dx="146" dy="381" grid="1" gridSize="10" guides="1" tooltips="1" connect="1" arrows="1" fold="1" page="1" pageScale="1" pageWidth="1100" pageHeight="850" math="0" shadow="0">
      <root>
        <mxCell id="0" />
        <mxCell id="1" parent="0" />
        <mxCell id="MQZsPcrhgI6mo9oAx_QS-1" value="1" style="rhombus;whiteSpace=wrap;html=1;rounded=1;fontStyle=1;glass=0;sketch=0;fontSize=12;points=[[0,0.5,0,0,0],[0.5,0,0,0,0],[0.5,1,0,0,0],[1,0.5,0,0,0]];shadow=1;fillColor=#0050ef;fontColor=#ffffff;strokeColor=#001DBC;fontFamily=Helvetica;" parent="1" vertex="1">
          <mxGeometry x="1640" y="60" width="40" height="40" as="geometry" />
        </mxCell>
        <mxCell id="MQZsPcrhgI6mo9oAx_QS-6" value="seq12c" style="rounded=1;sketch=0;container=1;recursiveResize=0;verticalAlign=top;arcSize=6;fontStyle=1;autosize=0;points=[];absoluteArcSize=1;shadow=1;strokeColor=#6c8ebf;fillColor=#DAE8FC;fontFamily=Helvetica;fontSize=11;labelBackgroundColor=none;gradientColor=#0050EF;" parent="1" vertex="1">
          <mxGeometry x="1425" y="40" width="110" height="130" as="geometry">
            <mxRectangle x="-98" y="-1230" width="99" height="26" as="alternateBounds" />
          </mxGeometry>
        </mxCell>
        <mxCell id="MQZsPcrhgI6mo9oAx_QS-8" value="1" style="rounded=1;whiteSpace=wrap;sketch=0;points=[[0,0.5,0,0,0],[1,0.5,0,0,0]];fillColor=#1ba1e2;fontColor=#ffffff;strokeColor=#006EAF;arcSize=50;fontFamily=Helvetica;fontSize=11;labelBackgroundColor=none;" parent="MQZsPcrhgI6mo9oAx_QS-6" vertex="1">
          <mxGeometry x="94.75" y="27.5" width="35.25" height="25" as="geometry" />
        </mxCell>
        <mxCell id="MQZsPcrhgI6mo9oAx_QS-9" value="" style="rounded=1;whiteSpace=wrap;sketch=0;points=[[0,0.5,0,0,0],[1,0.5,0,0,0]];arcSize=50;fontFamily=Helvetica;fontSize=11;fontColor=default;labelBackgroundColor=none;" parent="MQZsPcrhgI6mo9oAx_QS-6" vertex="1">
          <mxGeometry x="-10" y="57.5" width="39.25" height="25" as="geometry" />
        </mxCell>
        <mxCell id="MQZsPcrhgI6mo9oAx_QS-11" value="2" style="rounded=1;whiteSpace=wrap;sketch=0;points=[[0,0.5,0,0,0],[1,0.5,0,0,0]];fillColor=#1ba1e2;fontColor=#ffffff;strokeColor=#006EAF;arcSize=50;fontFamily=Helvetica;fontSize=11;labelBackgroundColor=none;" parent="MQZsPcrhgI6mo9oAx_QS-6" vertex="1">
          <mxGeometry x="94.75" y="60" width="35.25" height="25" as="geometry" />
        </mxCell>
        <mxCell id="MQZsPcrhgI6mo9oAx_QS-18" style="edgeStyle=orthogonalEdgeStyle;shape=connector;curved=0;rounded=1;orthogonalLoop=1;jettySize=auto;html=1;exitX=1;exitY=0.5;exitDx=0;exitDy=0;exitPerimeter=0;entryX=0;entryY=0.5;entryDx=0;entryDy=0;entryPerimeter=0;strokeColor=default;strokeWidth=2;align=center;verticalAlign=middle;fontFamily=Helvetica;fontSize=11;fontColor=default;labelBackgroundColor=default;endArrow=classic;" parent="1" source="MQZsPcrhgI6mo9oAx_QS-23" target="MQZsPcrhgI6mo9oAx_QS-26" edge="1">
          <mxGeometry relative="1" as="geometry">
            <mxPoint x="1180" y="110" as="sourcePoint" />
          </mxGeometry>
        </mxCell>
        <mxCell id="MQZsPcrhgI6mo9oAx_QS-20" style="edgeStyle=orthogonalEdgeStyle;shape=connector;curved=0;rounded=1;orthogonalLoop=1;jettySize=auto;html=1;exitX=1;exitY=0.5;exitDx=0;exitDy=0;exitPerimeter=0;entryX=0;entryY=0.5;entryDx=0;entryDy=0;entryPerimeter=0;strokeColor=default;strokeWidth=2;align=center;verticalAlign=middle;fontFamily=Helvetica;fontSize=11;fontColor=default;labelBackgroundColor=default;endArrow=classic;" parent="1" source="MQZsPcrhgI6mo9oAx_QS-8" target="MQZsPcrhgI6mo9oAx_QS-1" edge="1">
          <mxGeometry relative="1" as="geometry">
            <mxPoint x="1600" y="80" as="targetPoint" />
          </mxGeometry>
        </mxCell>
        <mxCell id="MQZsPcrhgI6mo9oAx_QS-21" style="edgeStyle=orthogonalEdgeStyle;shape=connector;curved=0;rounded=1;orthogonalLoop=1;jettySize=auto;html=1;exitX=1;exitY=0.5;exitDx=0;exitDy=0;exitPerimeter=0;entryX=0;entryY=0.5;entryDx=0;entryDy=0;entryPerimeter=0;strokeColor=default;strokeWidth=2;align=center;verticalAlign=middle;fontFamily=Helvetica;fontSize=11;fontColor=default;labelBackgroundColor=default;endArrow=classic;" parent="1" source="MQZsPcrhgI6mo9oAx_QS-11" target="x5mc6_dCWgqM8sQNCUdX-1" edge="1">
          <mxGeometry relative="1" as="geometry">
            <mxPoint x="1600" y="120" as="targetPoint" />
          </mxGeometry>
        </mxCell>
        <mxCell id="MQZsPcrhgI6mo9oAx_QS-23" value="" style="rhombus;whiteSpace=wrap;html=1;rounded=1;fontStyle=1;glass=0;sketch=0;fontSize=12;points=[[0,0.5,0,0,0],[0.5,0,0,0,0],[0.5,1,0,0,0],[1,0.5,0,0,0]];shadow=1;fontFamily=Helvetica;fontColor=default;" parent="1" vertex="1">
          <mxGeometry x="1120" y="90" width="40" height="40" as="geometry" />
        </mxCell>
        <mxCell id="MQZsPcrhgI6mo9oAx_QS-24" value="&#39;hello" style="rounded=1;container=1;recursiveResize=0;verticalAlign=middle;arcSize=6;fontStyle=1;autosize=0;points=[];absoluteArcSize=1;shadow=1;strokeColor=#6c8ebf;fillColor=#dae8fc;fontFamily=Helvetica;fontSize=11;gradientColor=#E6E6E6;fontColor=default;" parent="1" vertex="1">
          <mxGeometry x="1245" y="100" width="110" height="20" as="geometry">
            <mxRectangle x="-98" y="-1230" width="99" height="26" as="alternateBounds" />
          </mxGeometry>
        </mxCell>
        <mxCell id="MQZsPcrhgI6mo9oAx_QS-25" value="" style="rounded=1;sketch=0;points=[[0,0.5,0,0,0],[1,0.5,0,0,0]];arcSize=50;fontFamily=Helvetica;fontSize=11;fontColor=default;" parent="MQZsPcrhgI6mo9oAx_QS-24" vertex="1">
          <mxGeometry x="100" y="3.75" width="20" height="12.5" as="geometry" />
        </mxCell>
        <mxCell id="MQZsPcrhgI6mo9oAx_QS-26" value="" style="rounded=1;sketch=0;points=[[0,0.5,0,0,0],[1,0.5,0,0,0]];arcSize=50;fontFamily=Helvetica;fontSize=11;fontColor=default;" parent="MQZsPcrhgI6mo9oAx_QS-24" vertex="1">
          <mxGeometry x="-10" y="3.75" width="20" height="12.5" as="geometry" />
        </mxCell>
        <mxCell id="QgEnSPvNWFsEh9QpiZMo-1" style="edgeStyle=orthogonalEdgeStyle;rounded=1;orthogonalLoop=1;jettySize=auto;html=1;exitX=1;exitY=0.5;exitDx=0;exitDy=0;exitPerimeter=0;entryX=0;entryY=0.5;entryDx=0;entryDy=0;entryPerimeter=0;strokeWidth=2;curved=0;" parent="1" source="MQZsPcrhgI6mo9oAx_QS-25" target="MQZsPcrhgI6mo9oAx_QS-9" edge="1">
          <mxGeometry relative="1" as="geometry" />
        </mxCell>
        <mxCell id="x5mc6_dCWgqM8sQNCUdX-1" value="2" style="rhombus;whiteSpace=wrap;html=1;rounded=1;fontStyle=1;glass=0;sketch=0;fontSize=12;points=[[0,0.5,0,0,0],[0.5,0,0,0,0],[0.5,1,0,0,0],[1,0.5,0,0,0]];shadow=1;fillColor=#0050ef;fontColor=#ffffff;strokeColor=#001DBC;fontFamily=Helvetica;" vertex="1" parent="1">
          <mxGeometry x="1640" y="100" width="40" height="40" as="geometry" />
        </mxCell>
      </root>
    </mxGraphModel>
  </diagram>
  <diagram id="FDP4zpqfk78ByCc-TuvS" name="seq12c">
    <mxGraphModel dx="1006" dy="381" grid="1" gridSize="10" guides="1" tooltips="1" connect="1" arrows="1" fold="1" page="1" pageScale="1" pageWidth="1100" pageHeight="850" math="0" shadow="0">
      <root>
        <mxCell id="0" />
        <mxCell id="1" parent="0" />
        <mxCell id="EBOqqxyf-TRvdcjIKbjW-1" value="1then2" style="rounded=1;sketch=0;container=1;recursiveResize=0;verticalAlign=top;arcSize=6;fontStyle=1;autosize=0;points=[];absoluteArcSize=1;shadow=1;strokeColor=#001DBC;fillColor=#0050ef;fontColor=#ffffff;fontFamily=Helvetica;fontSize=11;labelBackgroundColor=none;" vertex="1" parent="1">
          <mxGeometry x="160" y="120" width="130" height="110" as="geometry">
            <mxRectangle x="-98" y="-1230" width="99" height="26" as="alternateBounds" />
          </mxGeometry>
        </mxCell>
        <mxCell id="EBOqqxyf-TRvdcjIKbjW-2" value="1" style="rounded=1;sketch=0;points=[[0,0.5,0,0,0],[1,0.5,0,0,0]];arcSize=50;fontFamily=Helvetica;fontSize=11;fontColor=default;labelBackgroundColor=none;" vertex="1" parent="EBOqqxyf-TRvdcjIKbjW-1">
          <mxGeometry x="-10" y="27.5" width="39.25" height="25" as="geometry" />
        </mxCell>
        <mxCell id="EBOqqxyf-TRvdcjIKbjW-3" value="2" style="rounded=1;sketch=0;points=[[0,0.5,0,0,0],[1,0.5,0,0,0]];arcSize=50;fontFamily=Helvetica;fontSize=11;fontColor=default;labelBackgroundColor=none;" vertex="1" parent="EBOqqxyf-TRvdcjIKbjW-1">
          <mxGeometry x="-10" y="67.5" width="39.25" height="25" as="geometry" />
        </mxCell>
        <mxCell id="EBOqqxyf-TRvdcjIKbjW-4" value="2" style="rounded=1;sketch=0;points=[[0,0.5,0,0,0],[1,0.5,0,0,0]];fillColor=#1ba1e2;fontColor=#ffffff;strokeColor=#006EAF;arcSize=50;fontFamily=Helvetica;fontSize=11;labelBackgroundColor=none;" vertex="1" parent="EBOqqxyf-TRvdcjIKbjW-1">
          <mxGeometry x="100" y="67.5" width="45.25" height="25" as="geometry" />
        </mxCell>
        <mxCell id="EBOqqxyf-TRvdcjIKbjW-5" value="1" style="rounded=1;sketch=0;points=[[0,0.5,0,0,0],[1,0.5,0,0,0]];fillColor=#1ba1e2;fontColor=#ffffff;strokeColor=#006EAF;arcSize=50;fontFamily=Helvetica;fontSize=11;labelBackgroundColor=none;" vertex="1" parent="EBOqqxyf-TRvdcjIKbjW-1">
          <mxGeometry x="100" y="27.5" width="45.25" height="25" as="geometry" />
        </mxCell>
        <mxCell id="EBOqqxyf-TRvdcjIKbjW-6" value="" style="rhombus;html=1;rounded=1;fontStyle=1;glass=0;sketch=0;fontSize=12;points=[[0,0.5,0,0,0],[0.5,0,0,0,0],[0.5,1,0,0,0],[1,0.5,0,0,0]];shadow=1;fontFamily=Helvetica;fontColor=default;labelBackgroundColor=default;" vertex="1" parent="1">
          <mxGeometry x="10" y="140" width="40" height="40" as="geometry" />
        </mxCell>
        <mxCell id="EBOqqxyf-TRvdcjIKbjW-9" style="edgeStyle=orthogonalEdgeStyle;shape=connector;curved=0;rounded=1;orthogonalLoop=1;jettySize=auto;html=1;exitX=1;exitY=0.5;exitDx=0;exitDy=0;exitPerimeter=0;entryX=0;entryY=0.5;entryDx=0;entryDy=0;entryPerimeter=0;strokeColor=default;strokeWidth=2;align=center;verticalAlign=middle;fontFamily=Helvetica;fontSize=11;fontColor=default;labelBackgroundColor=default;endArrow=classic;" edge="1" parent="1" source="EBOqqxyf-TRvdcjIKbjW-4" target="EBOqqxyf-TRvdcjIKbjW-10">
          <mxGeometry relative="1" as="geometry" />
        </mxCell>
        <mxCell id="EBOqqxyf-TRvdcjIKbjW-10" value="2" style="rhombus;html=1;rounded=1;fontStyle=1;glass=0;sketch=0;fontSize=12;points=[[0,0.5,0,0,0],[0.5,0,0,0,0],[0.5,1,0,0,0],[1,0.5,0,0,0]];shadow=1;fillColor=#0050ef;fontColor=#ffffff;strokeColor=#001DBC;fontFamily=Helvetica;labelBackgroundColor=none;" vertex="1" parent="1">
          <mxGeometry x="360" y="180" width="40" height="40" as="geometry" />
        </mxCell>
        <mxCell id="EBOqqxyf-TRvdcjIKbjW-11" value="1" style="rhombus;html=1;rounded=1;fontStyle=1;glass=0;sketch=0;fontSize=12;points=[[0,0.5,0,0,0],[0.5,0,0,0,0],[0.5,1,0,0,0],[1,0.5,0,0,0]];shadow=1;fillColor=#0050ef;fontColor=#ffffff;strokeColor=#001DBC;fontFamily=Helvetica;labelBackgroundColor=none;" vertex="1" parent="1">
          <mxGeometry x="360" y="140" width="40" height="40" as="geometry" />
        </mxCell>
        <mxCell id="EBOqqxyf-TRvdcjIKbjW-12" style="edgeStyle=orthogonalEdgeStyle;shape=connector;curved=0;rounded=1;orthogonalLoop=1;jettySize=auto;html=1;exitX=1;exitY=0.5;exitDx=0;exitDy=0;exitPerimeter=0;entryX=0;entryY=0.5;entryDx=0;entryDy=0;entryPerimeter=0;strokeColor=default;strokeWidth=2;align=center;verticalAlign=middle;fontFamily=Helvetica;fontSize=11;fontColor=default;labelBackgroundColor=default;endArrow=classic;" edge="1" parent="1" source="EBOqqxyf-TRvdcjIKbjW-5" target="EBOqqxyf-TRvdcjIKbjW-11">
          <mxGeometry relative="1" as="geometry" />
        </mxCell>
        <mxCell id="ckJSoWJP8_FsUBhUXRXn-1" style="edgeStyle=orthogonalEdgeStyle;rounded=1;orthogonalLoop=1;jettySize=auto;html=1;exitX=1;exitY=0.5;exitDx=0;exitDy=0;exitPerimeter=0;entryX=0;entryY=0.5;entryDx=0;entryDy=0;entryPerimeter=0;curved=0;strokeWidth=2;" edge="1" parent="1" source="EBOqqxyf-TRvdcjIKbjW-6" target="EBOqqxyf-TRvdcjIKbjW-3">
          <mxGeometry relative="1" as="geometry" />
        </mxCell>
        <mxCell id="ckJSoWJP8_FsUBhUXRXn-2" style="edgeStyle=orthogonalEdgeStyle;rounded=1;orthogonalLoop=1;jettySize=auto;html=1;exitX=1;exitY=0.5;exitDx=0;exitDy=0;exitPerimeter=0;entryX=0;entryY=0.5;entryDx=0;entryDy=0;entryPerimeter=0;strokeWidth=2;curved=0;" edge="1" parent="1" source="EBOqqxyf-TRvdcjIKbjW-6" target="EBOqqxyf-TRvdcjIKbjW-2">
          <mxGeometry relative="1" as="geometry" />
        </mxCell>
      </root>
    </mxGraphModel>
  </diagram>
</mxfile>
